<?xml version="1.0" encoding="UTF-8" standalone="no"?>
<!DOCTYPE svg PUBLIC "-//W3C//DTD SVG 1.1//EN"
 "http://www.w3.org/Graphics/SVG/1.1/DTD/svg11.dtd">
<!-- Generated by graphviz version 2.40.1 (0)
 -->
<!-- Title: %3 Pages: 1 -->
<svg width="278pt" height="332pt"
 viewBox="0.00 0.00 278.00 332.00" xmlns="http://www.w3.org/2000/svg" xmlns:xlink="http://www.w3.org/1999/xlink">
<g id="graph0" class="graph" transform="scale(1 1) rotate(0) translate(4 328)">
<title>%3</title>
<polygon fill="#ffffff" stroke="transparent" points="-4,4 -4,-328 274,-328 274,4 -4,4"/>
<!-- a -->
<g id="node1" class="node">
<title>a</title>
<polygon fill="none" stroke="#000000" points="54,-324 0,-324 0,-288 54,-288 54,-324"/>
<text text-anchor="middle" x="27" y="-302.3" font-family="Times,serif" font-size="14.00" fill="#000000">A</text>
</g>
<!-- b -->
<g id="node2" class="node">
<title>b</title>
<polygon fill="none" stroke="#000000" points="126,-324 72,-324 72,-288 126,-288 126,-324"/>
<text text-anchor="middle" x="99" y="-302.3" font-family="Times,serif" font-size="14.00" fill="#000000">B</text>
</g>
<!-- a&#45;&gt;b -->
<g id="edge1" class="edge">
<title>a&#45;&gt;b</title>
<path fill="none" stroke="#000000" d="M54.2813,-293.2918C56.7377,-292.8456 59.1942,-292.588 61.6507,-292.519"/>
<polygon fill="#000000" stroke="#000000" points="61.5101,-296.0184 71.7495,-293.2974 62.0481,-289.0391 61.5101,-296.0184"/>
</g>
<!-- aa -->
<g id="node5" class="node">
<title>aa</title>
<polygon fill="none" stroke="#000000" points="54,-252 0,-252 0,-216 54,-216 54,-252"/>
<text text-anchor="middle" x="27" y="-230.3" font-family="Times,serif" font-size="14.00" fill="#000000">AA</text>
</g>
<!-- a&#45;&gt;aa -->
<g id="edge7" class="edge">
<title>a&#45;&gt;aa</title>
<path fill="none" stroke="#000000" d="M21.0476,-287.8314C20.2972,-280.131 20.0763,-270.9743 20.3849,-262.4166"/>
<polygon fill="#000000" stroke="#000000" points="23.8792,-262.6161 21.024,-252.4133 16.8935,-262.1697 23.8792,-262.6161"/>
</g>
<!-- b&#45;&gt;a -->
<g id="edge2" class="edge">
<title>b&#45;&gt;a</title>
<path fill="none" stroke="#000000" d="M71.7495,-318.7026C69.293,-319.1503 66.8366,-319.4095 64.3801,-319.4802"/>
<polygon fill="#000000" stroke="#000000" points="64.519,-315.9807 54.2813,-318.7082 63.9854,-322.9603 64.519,-315.9807"/>
</g>
<!-- c -->
<g id="node3" class="node">
<title>c</title>
<polygon fill="none" stroke="#000000" points="198,-324 144,-324 144,-288 198,-288 198,-324"/>
<text text-anchor="middle" x="171" y="-302.3" font-family="Times,serif" font-size="14.00" fill="#000000">C</text>
</g>
<!-- b&#45;&gt;c -->
<g id="edge3" class="edge">
<title>b&#45;&gt;c</title>
<path fill="none" stroke="#000000" d="M126.2813,-293.2918C128.7377,-292.8456 131.1942,-292.588 133.6507,-292.519"/>
<polygon fill="#000000" stroke="#000000" points="133.5101,-296.0184 143.7495,-293.2974 134.0481,-289.0391 133.5101,-296.0184"/>
</g>
<!-- ba -->
<g id="node6" class="node">
<title>ba</title>
<polygon fill="none" stroke="#000000" points="126,-252 72,-252 72,-216 126,-216 126,-252"/>
<text text-anchor="middle" x="99" y="-230.3" font-family="Times,serif" font-size="14.00" fill="#000000">BA</text>
</g>
<!-- b&#45;&gt;ba -->
<g id="edge8" class="edge">
<title>b&#45;&gt;ba</title>
<path fill="none" stroke="#000000" d="M93.0476,-287.8314C92.2972,-280.131 92.0763,-270.9743 92.3849,-262.4166"/>
<polygon fill="#000000" stroke="#000000" points="95.8792,-262.6161 93.024,-252.4133 88.8935,-262.1697 95.8792,-262.6161"/>
</g>
<!-- c&#45;&gt;b -->
<g id="edge4" class="edge">
<title>c&#45;&gt;b</title>
<path fill="none" stroke="#000000" d="M143.7495,-318.7026C141.293,-319.1503 138.8366,-319.4095 136.3801,-319.4802"/>
<polygon fill="#000000" stroke="#000000" points="136.519,-315.9807 126.2813,-318.7082 135.9854,-322.9603 136.519,-315.9807"/>
</g>
<!-- d -->
<g id="node4" class="node">
<title>d</title>
<polygon fill="none" stroke="#000000" points="270,-324 216,-324 216,-288 270,-288 270,-324"/>
<text text-anchor="middle" x="243" y="-302.3" font-family="Times,serif" font-size="14.00" fill="#000000">D</text>
</g>
<!-- c&#45;&gt;d -->
<g id="edge5" class="edge">
<title>c&#45;&gt;d</title>
<path fill="none" stroke="#000000" d="M198.2813,-293.2918C200.7377,-292.8456 203.1942,-292.588 205.6507,-292.519"/>
<polygon fill="#000000" stroke="#000000" points="205.5101,-296.0184 215.7495,-293.2974 206.0481,-289.0391 205.5101,-296.0184"/>
</g>
<!-- ca -->
<g id="node7" class="node">
<title>ca</title>
<polygon fill="none" stroke="#000000" points="198,-252 144,-252 144,-216 198,-216 198,-252"/>
<text text-anchor="middle" x="171" y="-230.3" font-family="Times,serif" font-size="14.00" fill="#000000">CA</text>
</g>
<!-- c&#45;&gt;ca -->
<g id="edge9" class="edge">
<title>c&#45;&gt;ca</title>
<path fill="none" stroke="#000000" d="M165.0476,-287.8314C164.2972,-280.131 164.0763,-270.9743 164.3849,-262.4166"/>
<polygon fill="#000000" stroke="#000000" points="167.8792,-262.6161 165.024,-252.4133 160.8935,-262.1697 167.8792,-262.6161"/>
</g>
<!-- d&#45;&gt;c -->
<g id="edge6" class="edge">
<title>d&#45;&gt;c</title>
<path fill="none" stroke="#000000" d="M215.7495,-318.7026C213.293,-319.1503 210.8366,-319.4095 208.3801,-319.4802"/>
<polygon fill="#000000" stroke="#000000" points="208.519,-315.9807 198.2813,-318.7082 207.9854,-322.9603 208.519,-315.9807"/>
</g>
<!-- da -->
<g id="node8" class="node">
<title>da</title>
<polygon fill="none" stroke="#000000" points="270,-252 216,-252 216,-216 270,-216 270,-252"/>
<text text-anchor="middle" x="243" y="-230.3" font-family="Times,serif" font-size="14.00" fill="#000000">DA</text>
</g>
<!-- d&#45;&gt;da -->
<g id="edge10" class="edge">
<title>d&#45;&gt;da</title>
<path fill="none" stroke="#000000" d="M237.0476,-287.8314C236.2972,-280.131 236.0763,-270.9743 236.3849,-262.4166"/>
<polygon fill="#000000" stroke="#000000" points="239.8792,-262.6161 237.024,-252.4133 232.8935,-262.1697 239.8792,-262.6161"/>
</g>
<!-- aa&#45;&gt;a -->
<g id="edge17" class="edge">
<title>aa&#45;&gt;a</title>
<path fill="none" stroke="#000000" d="M32.976,-252.4133C33.7071,-260.0593 33.9203,-269.1084 33.6155,-277.5726"/>
<polygon fill="#000000" stroke="#000000" points="30.1048,-277.6264 32.9524,-287.8314 37.0902,-278.078 30.1048,-277.6264"/>
</g>
<!-- ab -->
<g id="node9" class="node">
<title>ab</title>
<polygon fill="none" stroke="#000000" points="54,-180 0,-180 0,-144 54,-144 54,-180"/>
<text text-anchor="middle" x="27" y="-158.3" font-family="Times,serif" font-size="14.00" fill="#000000">AB</text>
</g>
<!-- aa&#45;&gt;ab -->
<g id="edge11" class="edge">
<title>aa&#45;&gt;ab</title>
<path fill="none" stroke="#000000" d="M21.0476,-215.8314C20.2972,-208.131 20.0763,-198.9743 20.3849,-190.4166"/>
<polygon fill="#000000" stroke="#000000" points="23.8792,-190.6161 21.024,-180.4133 16.8935,-190.1697 23.8792,-190.6161"/>
</g>
<!-- ba&#45;&gt;b -->
<g id="edge24" class="edge">
<title>ba&#45;&gt;b</title>
<path fill="none" stroke="#000000" d="M104.976,-252.4133C105.7071,-260.0593 105.9203,-269.1084 105.6155,-277.5726"/>
<polygon fill="#000000" stroke="#000000" points="102.1048,-277.6264 104.9524,-287.8314 109.0902,-278.078 102.1048,-277.6264"/>
</g>
<!-- bb -->
<g id="node12" class="node">
<title>bb</title>
<polygon fill="none" stroke="#000000" points="126,-180 72,-180 72,-144 126,-144 126,-180"/>
<text text-anchor="middle" x="99" y="-158.3" font-family="Times,serif" font-size="14.00" fill="#000000">BB</text>
</g>
<!-- ba&#45;&gt;bb -->
<g id="edge18" class="edge">
<title>ba&#45;&gt;bb</title>
<path fill="none" stroke="#000000" d="M93.0476,-215.8314C92.2972,-208.131 92.0763,-198.9743 92.3849,-190.4166"/>
<polygon fill="#000000" stroke="#000000" points="95.8792,-190.6161 93.024,-180.4133 88.8935,-190.1697 95.8792,-190.6161"/>
</g>
<!-- ca&#45;&gt;c -->
<g id="edge31" class="edge">
<title>ca&#45;&gt;c</title>
<path fill="none" stroke="#000000" d="M176.976,-252.4133C177.7071,-260.0593 177.9203,-269.1084 177.6155,-277.5726"/>
<polygon fill="#000000" stroke="#000000" points="174.1048,-277.6264 176.9524,-287.8314 181.0902,-278.078 174.1048,-277.6264"/>
</g>
<!-- cb -->
<g id="node15" class="node">
<title>cb</title>
<polygon fill="none" stroke="#000000" points="198,-180 144,-180 144,-144 198,-144 198,-180"/>
<text text-anchor="middle" x="171" y="-158.3" font-family="Times,serif" font-size="14.00" fill="#000000">CB</text>
</g>
<!-- ca&#45;&gt;cb -->
<g id="edge25" class="edge">
<title>ca&#45;&gt;cb</title>
<path fill="none" stroke="#000000" d="M165.0476,-215.8314C164.2972,-208.131 164.0763,-198.9743 164.3849,-190.4166"/>
<polygon fill="#000000" stroke="#000000" points="167.8792,-190.6161 165.024,-180.4133 160.8935,-190.1697 167.8792,-190.6161"/>
</g>
<!-- da&#45;&gt;d -->
<g id="edge34" class="edge">
<title>da&#45;&gt;d</title>
<path fill="none" stroke="#000000" d="M248.976,-252.4133C249.7071,-260.0593 249.9203,-269.1084 249.6155,-277.5726"/>
<polygon fill="#000000" stroke="#000000" points="246.1048,-277.6264 248.9524,-287.8314 253.0902,-278.078 246.1048,-277.6264"/>
</g>
<!-- db -->
<g id="node18" class="node">
<title>db</title>
<polygon fill="none" stroke="#000000" points="270,-180 216,-180 216,-144 270,-144 270,-180"/>
<text text-anchor="middle" x="243" y="-158.3" font-family="Times,serif" font-size="14.00" fill="#000000">DB</text>
</g>
<!-- da&#45;&gt;db -->
<g id="edge32" class="edge">
<title>da&#45;&gt;db</title>
<path fill="none" stroke="#000000" d="M237.0476,-215.8314C236.2972,-208.131 236.0763,-198.9743 236.3849,-190.4166"/>
<polygon fill="#000000" stroke="#000000" points="239.8792,-190.6161 237.024,-180.4133 232.8935,-190.1697 239.8792,-190.6161"/>
</g>
<!-- ab&#45;&gt;aa -->
<g id="edge12" class="edge">
<title>ab&#45;&gt;aa</title>
<path fill="none" stroke="#000000" d="M32.976,-180.4133C33.7071,-188.0593 33.9203,-197.1084 33.6155,-205.5726"/>
<polygon fill="#000000" stroke="#000000" points="30.1048,-205.6264 32.9524,-215.8314 37.0902,-206.078 30.1048,-205.6264"/>
</g>
<!-- ac -->
<g id="node10" class="node">
<title>ac</title>
<polygon fill="none" stroke="#000000" points="54,-108 0,-108 0,-72 54,-72 54,-108"/>
<text text-anchor="middle" x="27" y="-86.3" font-family="Times,serif" font-size="14.00" fill="#000000">AC</text>
</g>
<!-- ab&#45;&gt;ac -->
<g id="edge13" class="edge">
<title>ab&#45;&gt;ac</title>
<path fill="none" stroke="#000000" d="M21.0476,-143.8314C20.2972,-136.131 20.0763,-126.9743 20.3849,-118.4166"/>
<polygon fill="#000000" stroke="#000000" points="23.8792,-118.6161 21.024,-108.4133 16.8935,-118.1697 23.8792,-118.6161"/>
</g>
<!-- ac&#45;&gt;ab -->
<g id="edge14" class="edge">
<title>ac&#45;&gt;ab</title>
<path fill="none" stroke="#000000" d="M32.976,-108.4133C33.7071,-116.0593 33.9203,-125.1084 33.6155,-133.5726"/>
<polygon fill="#000000" stroke="#000000" points="30.1048,-133.6264 32.9524,-143.8314 37.0902,-134.078 30.1048,-133.6264"/>
</g>
<!-- ad -->
<g id="node11" class="node">
<title>ad</title>
<polygon fill="none" stroke="#000000" points="54,-36 0,-36 0,0 54,0 54,-36"/>
<text text-anchor="middle" x="27" y="-14.3" font-family="Times,serif" font-size="14.00" fill="#000000">AD</text>
</g>
<!-- ac&#45;&gt;ad -->
<g id="edge15" class="edge">
<title>ac&#45;&gt;ad</title>
<path fill="none" stroke="#000000" d="M21.0476,-71.8314C20.2972,-64.131 20.0763,-54.9743 20.3849,-46.4166"/>
<polygon fill="#000000" stroke="#000000" points="23.8792,-46.6161 21.024,-36.4133 16.8935,-46.1697 23.8792,-46.6161"/>
</g>
<!-- ad&#45;&gt;ac -->
<g id="edge16" class="edge">
<title>ad&#45;&gt;ac</title>
<path fill="none" stroke="#000000" d="M32.976,-36.4133C33.7071,-44.0593 33.9203,-53.1084 33.6155,-61.5726"/>
<polygon fill="#000000" stroke="#000000" points="30.1048,-61.6264 32.9524,-71.8314 37.0902,-62.078 30.1048,-61.6264"/>
</g>
<!-- bb&#45;&gt;ba -->
<g id="edge19" class="edge">
<title>bb&#45;&gt;ba</title>
<path fill="none" stroke="#000000" d="M104.976,-180.4133C105.7071,-188.0593 105.9203,-197.1084 105.6155,-205.5726"/>
<polygon fill="#000000" stroke="#000000" points="102.1048,-205.6264 104.9524,-215.8314 109.0902,-206.078 102.1048,-205.6264"/>
</g>
<!-- bc -->
<g id="node13" class="node">
<title>bc</title>
<polygon fill="none" stroke="#000000" points="126,-108 72,-108 72,-72 126,-72 126,-108"/>
<text text-anchor="middle" x="99" y="-86.3" font-family="Times,serif" font-size="14.00" fill="#000000">BC</text>
</g>
<!-- bb&#45;&gt;bc -->
<g id="edge20" class="edge">
<title>bb&#45;&gt;bc</title>
<path fill="none" stroke="#000000" d="M93.0476,-143.8314C92.2972,-136.131 92.0763,-126.9743 92.3849,-118.4166"/>
<polygon fill="#000000" stroke="#000000" points="95.8792,-118.6161 93.024,-108.4133 88.8935,-118.1697 95.8792,-118.6161"/>
</g>
<!-- bc&#45;&gt;bb -->
<g id="edge21" class="edge">
<title>bc&#45;&gt;bb</title>
<path fill="none" stroke="#000000" d="M104.976,-108.4133C105.7071,-116.0593 105.9203,-125.1084 105.6155,-133.5726"/>
<polygon fill="#000000" stroke="#000000" points="102.1048,-133.6264 104.9524,-143.8314 109.0902,-134.078 102.1048,-133.6264"/>
</g>
<!-- bd -->
<g id="node14" class="node">
<title>bd</title>
<polygon fill="none" stroke="#000000" points="126,-36 72,-36 72,0 126,0 126,-36"/>
<text text-anchor="middle" x="99" y="-14.3" font-family="Times,serif" font-size="14.00" fill="#000000">BD</text>
</g>
<!-- bc&#45;&gt;bd -->
<g id="edge22" class="edge">
<title>bc&#45;&gt;bd</title>
<path fill="none" stroke="#000000" d="M93.0476,-71.8314C92.2972,-64.131 92.0763,-54.9743 92.3849,-46.4166"/>
<polygon fill="#000000" stroke="#000000" points="95.8792,-46.6161 93.024,-36.4133 88.8935,-46.1697 95.8792,-46.6161"/>
</g>
<!-- bd&#45;&gt;bc -->
<g id="edge23" class="edge">
<title>bd&#45;&gt;bc</title>
<path fill="none" stroke="#000000" d="M104.976,-36.4133C105.7071,-44.0593 105.9203,-53.1084 105.6155,-61.5726"/>
<polygon fill="#000000" stroke="#000000" points="102.1048,-61.6264 104.9524,-71.8314 109.0902,-62.078 102.1048,-61.6264"/>
</g>
<!-- cb&#45;&gt;ca -->
<g id="edge26" class="edge">
<title>cb&#45;&gt;ca</title>
<path fill="none" stroke="#000000" d="M176.976,-180.4133C177.7071,-188.0593 177.9203,-197.1084 177.6155,-205.5726"/>
<polygon fill="#000000" stroke="#000000" points="174.1048,-205.6264 176.9524,-215.8314 181.0902,-206.078 174.1048,-205.6264"/>
</g>
<!-- cc -->
<g id="node16" class="node">
<title>cc</title>
<polygon fill="none" stroke="#000000" points="198,-108 144,-108 144,-72 198,-72 198,-108"/>
<text text-anchor="middle" x="171" y="-86.3" font-family="Times,serif" font-size="14.00" fill="#000000">CC</text>
</g>
<!-- cb&#45;&gt;cc -->
<g id="edge27" class="edge">
<title>cb&#45;&gt;cc</title>
<path fill="none" stroke="#000000" d="M165.0476,-143.8314C164.2972,-136.131 164.0763,-126.9743 164.3849,-118.4166"/>
<polygon fill="#000000" stroke="#000000" points="167.8792,-118.6161 165.024,-108.4133 160.8935,-118.1697 167.8792,-118.6161"/>
</g>
<!-- cc&#45;&gt;cb -->
<g id="edge28" class="edge">
<title>cc&#45;&gt;cb</title>
<path fill="none" stroke="#000000" d="M176.976,-108.4133C177.7071,-116.0593 177.9203,-125.1084 177.6155,-133.5726"/>
<polygon fill="#000000" stroke="#000000" points="174.1048,-133.6264 176.9524,-143.8314 181.0902,-134.078 174.1048,-133.6264"/>
</g>
<!-- cd -->
<g id="node17" class="node">
<title>cd</title>
<polygon fill="none" stroke="#000000" points="198,-36 144,-36 144,0 198,0 198,-36"/>
<text text-anchor="middle" x="171" y="-14.3" font-family="Times,serif" font-size="14.00" fill="#000000">CD</text>
</g>
<!-- cc&#45;&gt;cd -->
<g id="edge29" class="edge">
<title>cc&#45;&gt;cd</title>
<path fill="none" stroke="#000000" d="M165.0476,-71.8314C164.2972,-64.131 164.0763,-54.9743 164.3849,-46.4166"/>
<polygon fill="#000000" stroke="#000000" points="167.8792,-46.6161 165.024,-36.4133 160.8935,-46.1697 167.8792,-46.6161"/>
</g>
<!-- cd&#45;&gt;cc -->
<g id="edge30" class="edge">
<title>cd&#45;&gt;cc</title>
<path fill="none" stroke="#000000" d="M176.976,-36.4133C177.7071,-44.0593 177.9203,-53.1084 177.6155,-61.5726"/>
<polygon fill="#000000" stroke="#000000" points="174.1048,-61.6264 176.9524,-71.8314 181.0902,-62.078 174.1048,-61.6264"/>
</g>
<!-- db&#45;&gt;da -->
<g id="edge33" class="edge">
<title>db&#45;&gt;da</title>
<path fill="none" stroke="#000000" d="M248.976,-180.4133C249.7071,-188.0593 249.9203,-197.1084 249.6155,-205.5726"/>
<polygon fill="#000000" stroke="#000000" points="246.1048,-205.6264 248.9524,-215.8314 253.0902,-206.078 246.1048,-205.6264"/>
</g>
</g>
</svg>
