<?xml version="1.0" encoding="UTF-8" standalone="no"?>
<!-- Created with Inkscape (http://www.inkscape.org/) -->
<svg xmlns:dc="http://purl.org/dc/elements/1.1/" xmlns:cc="http://creativecommons.org/ns#" xmlns:rdf="http://www.w3.org/1999/02/22-rdf-syntax-ns#" xmlns:svg="http://www.w3.org/2000/svg" xmlns="http://www.w3.org/2000/svg" version="1.1" width="300.00046" height="143.73" id="svg2" xml:space="preserve"><metadata id="metadata8"><rdf:RDF><cc:Work rdf:about=""><dc:format>image/svg+xml</dc:format><dc:type rdf:resource="http://purl.org/dc/dcmitype/StillImage"/><dc:title/></cc:Work></rdf:RDF></metadata><defs id="defs6"><clipPath id="clipPath18"><path d="m 21,21 858.898,0 0,612.283 L 21,633.283 21,21 z" id="path20"/></clipPath><clipPath id="clipPath30"><path d="m 587.93,512.159 0,-97.787 0,-161.462 204.722,0 0,15.18 86.983,0.553 0,243.516 -291.705,0 z" id="path32"/></clipPath><clipPath id="clipPath60"><path d="m 320.213,445.262 232.717,0 0,188.022 -232.717,0 0,-188.022 z" id="path62"/></clipPath><clipPath id="clipPath72"><path d="m 552.449,414.372 35.481,0 0,218.911 -35.481,0 0,-218.911 z" id="path74"/></clipPath><clipPath id="clipPath84"><path d="m 320.213,414.372 232.717,0 0,31.369 -232.717,0 0,-31.369 z" id="path86"/></clipPath><clipPath id="clipPath96"><path d="m 320.213,633.283 -15.748,0 0,-218.911 15.748,0 0,218.911 z" id="path98"/></clipPath><clipPath id="clipPath120"><path d="m 121.91,633.266 -99.493,0 0,-201.549 282.048,0 0,201.566 -182.555,-0.017 z" id="path122"/></clipPath><clipPath id="clipPath132"><path d="m 125.328,250.318 0,-21.253 L 21,229.065 21,21 l 283.465,0 0,229.318 -179.137,0 z" id="path134"/></clipPath><clipPath id="clipPath144"><path d="m 304.465,61.682 283.465,0 0,128.708 -283.465,0 0,-128.708 z" id="path146"/></clipPath><clipPath id="clipPath228"><path d="m 727.844,539.238 111.989,0 0,53.652 -111.989,0 0,-53.652 z" id="path230"/></clipPath><clipPath id="clipPath470"><path d="m 0,0 900.898,0 0,654.284 L 0,654.284 0,0 z" id="path472"/></clipPath><clipPath id="clipPath782"><path d="m 0,0 900.898,0 0,654.284 L 0,654.284 0,0 z" id="path784"/></clipPath><clipPath id="clipPath914"><path d="m 0,0 900.898,0 0,654.284 L 0,654.284 0,0 z" id="path916"/></clipPath></defs><g transform="matrix(1.25,0,0,-1.25,-829.79759,779.44425)" id="g10"><g transform="matrix(2.1430728,0,0,2.1430728,734.04363,564.33137)" id="g232"><path d="m 0,0 -1.854,0 0,-2.661 1.854,0 c 0.863,0 1.43,0.55 1.43,1.331 C 1.43,-0.554 0.863,0 0,0 m 1.529,-8.327 -1.968,4.019 -1.415,0 0,-4.019 -1.969,0 0,10.082 3.951,0 c 2.054,0 3.268,-1.402 3.268,-3.085 0,-1.42 -0.862,-2.295 -1.838,-2.651 l 2.253,-4.346 -2.282,0 z" id="path234" style="fill:#231f20;fill-opacity:1;fill-rule:nonzero;stroke:none"/></g><g transform="matrix(2.1430728,0,0,2.1430728,757.23361,546.48557)" id="g236"><path d="m 0,0 0,4.221 -3.411,0 0,-4.221 -1.967,0 0,10.082 1.967,0 0,-4.122 3.411,0 0,4.122 1.969,0 L 1.969,0 0,0 z" id="path238" style="fill:#231f20;fill-opacity:1;fill-rule:nonzero;stroke:none"/></g><g transform="matrix(2.1430728,0,0,2.1430728,766.5009,546.48557)" id="g240"><path d="m 0,0 0,10.082 6.641,0 0,-1.755 -4.67,0 0,-2.367 3.977,0 0,-1.754 -3.977,0 0,-2.449 4.67,0 L 6.641,0 0,0 z" id="path242" style="fill:#231f20;fill-opacity:1;fill-rule:nonzero;stroke:none"/></g><path d="m 784.86853,568.09203 4.22185,0 0,-21.60646 -4.22185,0 0,21.60646 z" id="path244" style="fill:#231f20;fill-opacity:1;fill-rule:nonzero;stroke:none"/><g transform="matrix(2.1430728,0,0,2.1430728,806.89825,546.48557)" id="g246"><path d="m 0,0 -3.992,6.187 0,-6.187 -1.967,0 0,10.082 1.757,0 3.993,-6.171 0,6.171 1.966,0 L 1.757,0 0,0 z" id="path248" style="fill:#231f20;fill-opacity:1;fill-rule:nonzero;stroke:none"/></g><g transform="matrix(2.1430728,0,0,2.1430728,814.98471,553.31769)" id="g250"><path d="m 0,0 0,1.713 3.403,0 L 3.794,0 0,0 z" id="path252" style="fill:#231f20;fill-opacity:1;fill-rule:nonzero;stroke:none"/></g><g transform="matrix(2.1430728,0,0,2.1430728,844.87993,546.48557)" id="g254"><path d="M 0,0 -1.64,0 -3.495,6.118 -5.351,0 l -1.642,0 -2.688,10.082 2.052,0 1.557,-6.358 1.839,6.358 1.475,0 1.84,-6.358 1.571,6.358 2.053,0 L 0,0 z" id="path256" style="fill:#231f20;fill-opacity:1;fill-rule:nonzero;stroke:none"/></g><g transform="matrix(2.1430728,0,0,2.1430728,858.94984,561.71575)" id="g258"><path d="m 0,0 -1.276,-3.665 2.507,0 L 0,0 z m 2.351,-7.106 -0.598,1.784 -3.581,0 -0.607,-1.784 -2.054,0 3.666,10.082 1.545,0 3.679,-10.082 -2.05,0 z" id="path260" style="fill:#231f20;fill-opacity:1;fill-rule:nonzero;stroke:none"/></g><g transform="matrix(2.1430728,0,0,2.1430728,878.31701,561.71575)" id="g262"><path d="m 0,0 -1.275,-3.665 2.508,0 L 0,0 z m 2.349,-7.106 -0.595,1.784 -3.581,0 -0.609,-1.784 -2.051,0 3.668,10.082 1.539,0 3.682,-10.082 -2.053,0 z" id="path264" style="fill:#231f20;fill-opacity:1;fill-rule:nonzero;stroke:none"/></g><g transform="matrix(2.1430728,0,0,2.1430728,889.82917,546.48557)" id="g266"><path d="m 0,0 0,10.082 1.968,0 0,-8.325 4.569,0 L 6.537,0 0,0 z" id="path268" style="fill:#231f20;fill-opacity:1;fill-rule:nonzero;stroke:none"/></g><g transform="matrix(2.1430728,0,0,2.1430728,730.18396,536.16111)" id="g270"><path d="m 0,0 -1.068,0 0,-1.485 1.068,0 c 0.481,0 0.803,0.271 0.803,0.742 C 0.803,-0.277 0.481,0 0,0 m 0.831,-4.092 -0.998,1.997 -0.901,0 0,-1.997 -0.715,0 0,4.74 1.834,0 c 0.901,0 1.474,-0.581 1.474,-1.387 0,-0.679 -0.416,-1.109 -0.944,-1.259 l 1.09,-2.094 -0.84,0 z" id="path272" style="fill:#231f20;fill-opacity:1;fill-rule:nonzero;stroke:none"/></g><g transform="matrix(2.1430728,0,0,2.1430728,740.01359,527.39122)" id="g274"><path d="m 0,0 0,2.068 c 0,0.514 -0.299,0.741 -0.678,0.741 -0.381,0 -0.688,-0.23 -0.688,-0.741 l 0,-2.068 -0.678,0 0,4.741 0.678,0 0,-1.704 c 0.235,0.251 0.542,0.378 0.874,0.378 0.754,0 1.17,-0.506 1.17,-1.238 L 0.678,0 0,0 z" id="path276" style="fill:#231f20;fill-opacity:1;fill-rule:nonzero;stroke:none"/></g><path d="m 743.80297,534.62366 1.45943,0 0,-7.23287 -1.45943,0 0,7.23287 z m -0.0407,2.96816 1.54087,0 0,-1.54087 -1.54087,0 0,1.54087 z" id="path278" style="fill:#231f20;fill-opacity:1;fill-rule:nonzero;stroke:none"/><g transform="matrix(2.1430728,0,0,2.1430728,752.07995,527.39122)" id="g280"><path d="m 0,0 0,2.057 c 0,0.525 -0.298,0.752 -0.677,0.752 -0.38,0 -0.702,-0.23 -0.702,-0.752 l 0,-2.057 -0.679,0 0,3.375 0.667,0 0,-0.338 c 0.233,0.251 0.56,0.378 0.9,0.378 0.346,0 0.633,-0.116 0.829,-0.307 C 0.6,2.854 0.681,2.538 0.681,2.157 L 0.681,0 0,0 z" id="path282" style="fill:#231f20;fill-opacity:1;fill-rule:nonzero;stroke:none"/></g><g transform="matrix(2.1430728,0,0,2.1430728,759.99517,532.5811)" id="g284"><path d="M 0,0 C -0.103,0.252 -0.344,0.427 -0.666,0.427 -0.986,0.427 -1.23,0.252 -1.335,0 -1.402,-0.153 -1.417,-0.253 -1.422,-0.458 l 1.517,0 C 0.09,-0.253 0.067,-0.153 0,0 m -1.422,-0.93 c 0,-0.579 0.307,-0.949 0.856,-0.949 0.38,0 0.582,0.109 0.821,0.346 l 0.434,-0.405 c -0.348,-0.346 -0.673,-0.523 -1.266,-0.523 -0.845,0 -1.52,0.445 -1.52,1.73 0,1.093 0.565,1.724 1.431,1.724 0.908,0 1.434,-0.665 1.434,-1.626 l 0,-0.297 -2.19,0 z" id="path286" style="fill:#231f20;fill-opacity:1;fill-rule:nonzero;stroke:none"/></g><g transform="matrix(2.1430728,0,0,2.1430728,763.62211,530.67098)" id="g288"><path d="m 0,0 0,0.633 1.725,0 L 1.87,0 0,0 z" id="path290" style="fill:#231f20;fill-opacity:1;fill-rule:nonzero;stroke:none"/></g><g transform="matrix(2.1430728,0,0,2.1430728,777.77067,527.39122)" id="g292"><path d="M 0,0 -0.624,0 -1.595,3.321 -2.552,0 l -0.626,0 -1.243,4.741 0.763,0 0.824,-3.391 0.953,3.391 0.579,0 0.953,-3.391 0.826,3.391 0.758,0 L 0,0 z" id="path294" style="fill:#231f20;fill-opacity:1;fill-rule:nonzero;stroke:none"/></g><g transform="matrix(2.1430728,0,0,2.1430728,785.12806,530.58847)" id="g296"><path d="m 0,0 -0.793,0 c -0.403,0 -0.61,-0.182 -0.61,-0.49 0,-0.305 0.195,-0.475 0.622,-0.475 0.259,0 0.453,0.015 0.635,0.189 C -0.049,-0.674 0,-0.516 0,-0.275 L 0,0 z m 0.012,-1.492 0,0.303 c -0.248,-0.242 -0.48,-0.343 -0.898,-0.343 -0.422,0 -0.704,0.101 -0.906,0.303 -0.176,0.183 -0.268,0.442 -0.268,0.729 0,0.563 0.394,0.971 1.166,0.971 l 0.894,0 0,0.241 c 0,0.425 -0.22,0.631 -0.741,0.631 -0.373,0 -0.554,-0.085 -0.741,-0.326 l -0.442,0.421 c 0.319,0.369 0.651,0.485 1.21,0.485 0.926,0 1.391,-0.393 1.391,-1.159 l 0,-2.256 -0.665,0 z" id="path298" style="fill:#231f20;fill-opacity:1;fill-rule:nonzero;stroke:none"/></g><g transform="matrix(2.1430728,0,0,2.1430728,792.7844,530.58847)" id="g300"><path d="m 0,0 -0.79,0 c -0.401,0 -0.609,-0.182 -0.609,-0.49 0,-0.305 0.194,-0.475 0.622,-0.475 0.258,0 0.454,0.015 0.631,0.189 0.1,0.102 0.146,0.26 0.146,0.501 L 0,0 z m 0.013,-1.492 0,0.303 c -0.245,-0.242 -0.478,-0.343 -0.898,-0.343 -0.417,0 -0.698,0.101 -0.906,0.303 -0.17,0.183 -0.266,0.442 -0.266,0.729 0,0.563 0.391,0.971 1.167,0.971 l 0.89,0 0,0.241 c 0,0.425 -0.212,0.631 -0.74,0.631 -0.372,0 -0.549,-0.085 -0.736,-0.326 l -0.447,0.421 c 0.322,0.369 0.651,0.485 1.208,0.485 0.928,0 1.394,-0.393 1.394,-1.159 l 0,-2.256 -0.666,0 z" id="path302" style="fill:#231f20;fill-opacity:1;fill-rule:nonzero;stroke:none"/></g><g transform="matrix(2.1430728,0,0,2.1430728,798.52119,527.39122)" id="g304"><path d="m 0,0 c -0.648,0 -0.924,0.432 -0.924,0.93 l 0,3.811 0.678,0 0,-3.772 c 0,-0.259 0.093,-0.392 0.367,-0.392 l 0.299,0 L 0.42,0 0,0 z" id="path306" style="fill:#231f20;fill-opacity:1;fill-rule:nonzero;stroke:none"/></g><g transform="matrix(2.1430728,0,0,2.1430728,808.30132,527.30571)" id="g308"><path d="m 0,0 c -0.968,0 -1.701,0.656 -1.701,1.636 l 0,3.144 0.719,0 0,-3.113 c 0,-0.629 0.389,-1.022 0.982,-1.022 0.589,0 0.984,0.393 0.984,1.022 l 0,3.113 0.72,0 0,-3.144 C 1.704,0.656 0.963,0 0,0" id="path310" style="fill:#231f20;fill-opacity:1;fill-rule:nonzero;stroke:none"/></g><g transform="matrix(2.1430728,0,0,2.1430728,818.77987,527.39122)" id="g312"><path d="m 0,0 0,2.057 c 0,0.525 -0.3,0.752 -0.681,0.752 -0.375,0 -0.696,-0.23 -0.696,-0.752 l 0,-2.057 -0.679,0 0,3.375 0.663,0 0,-0.338 c 0.238,0.251 0.561,0.378 0.902,0.378 0.349,0 0.631,-0.116 0.831,-0.307 C 0.601,2.854 0.681,2.538 0.681,2.157 L 0.681,0 0,0 z" id="path314" style="fill:#231f20;fill-opacity:1;fill-rule:nonzero;stroke:none"/></g><path d="m 822.57375,534.62366 1.46158,0 0,-7.23287 -1.46158,0 0,7.23287 z m -0.0386,2.96816 1.53873,0 0,-1.54087 -1.53873,0 0,1.54087 z" id="path316" style="fill:#231f20;fill-opacity:1;fill-rule:nonzero;stroke:none"/><g transform="matrix(2.1430728,0,0,2.1430728,829.37437,527.39122)" id="g318"><path d="m 0,0 -0.551,0 -1.237,3.375 0.717,0 0.8,-2.377 0.79,2.377 0.721,0 L 0,0 z" id="path320" style="fill:#231f20;fill-opacity:1;fill-rule:nonzero;stroke:none"/></g><g transform="matrix(2.1430728,0,0,2.1430728,837.38089,532.5811)" id="g322"><path d="M 0,0 C -0.107,0.252 -0.346,0.427 -0.666,0.427 -0.988,0.427 -1.235,0.252 -1.341,0 -1.405,-0.153 -1.42,-0.253 -1.428,-0.458 l 1.519,0 C 0.086,-0.253 0.067,-0.153 0,0 m -1.428,-0.93 c 0,-0.579 0.309,-0.949 0.859,-0.949 0.383,0 0.582,0.109 0.821,0.346 l 0.434,-0.405 c -0.345,-0.346 -0.673,-0.523 -1.264,-0.523 -0.85,0 -1.519,0.445 -1.519,1.73 0,1.093 0.567,1.724 1.431,1.724 0.91,0 1.431,-0.665 1.431,-1.626 l 0,-0.297 -2.193,0 z" id="path324" style="fill:#231f20;fill-opacity:1;fill-rule:nonzero;stroke:none"/></g><g transform="matrix(2.1430728,0,0,2.1430728,845.03144,532.92549)" id="g326"><path d="m 0,0 c -0.155,0.151 -0.276,0.227 -0.507,0.227 -0.369,0 -0.678,-0.293 -0.678,-0.758 l 0,-2.051 -0.676,0 0,3.375 0.668,0 0,-0.369 c 0.17,0.242 0.517,0.408 0.898,0.408 0.324,0 0.573,-0.087 0.803,-0.32 L 0,0 z" id="path328" style="fill:#231f20;fill-opacity:1;fill-rule:nonzero;stroke:none"/></g><g transform="matrix(2.1430728,0,0,2.1430728,849.61226,527.30571)" id="g330"><path d="m 0,0 c -0.557,0 -1.025,0.091 -1.422,0.486 l 0.449,0.442 C -0.703,0.649 -0.337,0.576 0,0.576 c 0.411,0 0.736,0.15 0.736,0.466 0,0.231 -0.126,0.374 -0.454,0.401 l -0.537,0.048 c -0.634,0.051 -1.001,0.337 -1.001,0.931 0,0.66 0.566,1.032 1.274,1.032 0.505,0 0.939,-0.105 1.251,-0.378 L 0.844,2.643 C 0.631,2.825 0.329,2.888 0.009,2.888 c -0.405,0 -0.612,-0.179 -0.612,-0.435 0,-0.201 0.105,-0.351 0.466,-0.384 L 0.396,2.02 C 1.027,1.969 1.4,1.667 1.4,1.071 1.4,0.366 0.803,0 0,0" id="path332" style="fill:#231f20;fill-opacity:1;fill-rule:nonzero;stroke:none"/></g><path d="m 854.48411,534.62366 1.45943,0 0,-7.23287 -1.45943,0 0,7.23287 z m -0.0471,2.96816 1.53873,0 0,-1.54087 -1.53873,0 0,1.54087 z" id="path334" style="fill:#231f20;fill-opacity:1;fill-rule:nonzero;stroke:none"/><g transform="matrix(2.1430728,0,0,2.1430728,860.59251,527.39122)" id="g336"><path d="m 0,0 c -0.631,0 -0.924,0.45 -0.924,0.936 l 0,1.857 -0.385,0 0,0.523 0.385,0 0,1.026 0.678,0 0,-1.026 0.654,0 0,-0.523 -0.654,0 0,-1.824 c 0,-0.243 0.12,-0.392 0.372,-0.392 l 0.282,0 L 0.408,0 0,0 z" id="path338" style="fill:#231f20;fill-opacity:1;fill-rule:nonzero;stroke:none"/></g><g transform="matrix(2.1430728,0,0,2.1430728,865.7796,525.94722)" id="g340"><path d="m 0,0 c -0.067,-0.187 -0.146,-0.321 -0.246,-0.42 -0.185,-0.187 -0.435,-0.249 -0.693,-0.249 l -0.273,0 0,0.615 0.174,0 c 0.285,0 0.387,0.086 0.486,0.357 l 0.187,0.527 -1.181,3.218 0.722,0 0.804,-2.376 0.786,2.376 0.726,0 L 0,0 z" id="path342" style="fill:#231f20;fill-opacity:1;fill-rule:nonzero;stroke:none"/></g><g transform="matrix(2.1430728,0,0,2.1430728,729.92786,517.11969)" id="g344"><path d="m 0,0 c -0.126,0.125 -0.299,0.191 -0.499,0.191 -0.204,0 -0.368,-0.066 -0.495,-0.191 -0.208,-0.211 -0.235,-0.564 -0.235,-0.928 0,-0.367 0.027,-0.72 0.235,-0.926 0.127,-0.128 0.291,-0.2 0.495,-0.2 0.2,0 0.373,0.072 0.499,0.2 0.207,0.206 0.234,0.559 0.234,0.926 C 0.234,-0.564 0.207,-0.211 0,0 m 0.51,-2.261 c -0.216,-0.229 -0.551,-0.4 -1.009,-0.4 -0.46,0 -0.788,0.171 -1.008,0.4 -0.318,0.33 -0.4,0.76 -0.4,1.333 0,0.563 0.082,0.991 0.4,1.324 0.22,0.228 0.548,0.399 1.008,0.399 0.458,0 0.793,-0.171 1.009,-0.399 0.321,-0.333 0.401,-0.761 0.401,-1.324 0,-0.573 -0.08,-1.003 -0.401,-1.333" id="path346" style="fill:#231f20;fill-opacity:1;fill-rule:nonzero;stroke:none"/></g><g transform="matrix(2.1430728,0,0,2.1430728,735.63401,517.49687)" id="g348"><path d="m 0,0 0,-2.796 -0.683,0 0,2.796 -0.384,0 0,0.519 0.384,0 0,0.519 c 0,0.486 0.293,0.941 0.928,0.941 l 0.427,0 0,-0.58 -0.299,0 C 0.119,1.399 0,1.252 0,1.003 l 0,-0.484 0.672,0 L 0.672,0 0,0 z" id="path350" style="fill:#231f20;fill-opacity:1;fill-rule:nonzero;stroke:none"/></g><g transform="matrix(2.1430728,0,0,2.1430728,745.59179,519.36584)" id="g352"><path d="m 0,0 -0.74,-2.103 1.458,0 L 0,0 z m 1.242,-3.668 -0.325,0.951 -1.868,0 -0.328,-0.951 -0.766,0 1.734,4.74 0.584,0 1.741,-4.74 -0.772,0 z" id="path354" style="fill:#231f20;fill-opacity:1;fill-rule:nonzero;stroke:none"/></g><g transform="matrix(2.1430728,0,0,2.1430728,754.24038,517.5273)" id="g356"><path d="m 0,0 c -0.616,0 -0.708,-0.519 -0.708,-1.119 0,-0.602 0.092,-1.125 0.708,-1.125 0.61,0 0.699,0.523 0.699,1.125 C 0.699,-0.519 0.61,0 0,0 M 0.996,-2.552 C 0.81,-2.739 0.52,-2.851 0.179,-2.851 c -0.361,0 -0.64,0.089 -0.887,0.386 l 0,-1.714 -0.681,0 0,4.745 0.667,0 0,-0.361 c 0.253,0.31 0.526,0.401 0.895,0.401 0.338,0 0.637,-0.113 0.823,-0.3 0.341,-0.339 0.38,-0.913 0.38,-1.425 0,-0.514 -0.039,-1.095 -0.38,-1.433" id="path358" style="fill:#231f20;fill-opacity:1;fill-rule:nonzero;stroke:none"/></g><g transform="matrix(2.1430728,0,0,2.1430728,762.23061,517.5273)" id="g360"><path d="m 0,0 c -0.616,0 -0.71,-0.519 -0.71,-1.119 0,-0.602 0.094,-1.125 0.71,-1.125 0.61,0 0.699,0.523 0.699,1.125 C 0.699,-0.519 0.61,0 0,0 M 0.997,-2.552 C 0.813,-2.739 0.518,-2.851 0.18,-2.851 c -0.36,0 -0.642,0.089 -0.89,0.386 l 0,-1.714 -0.677,0 0,4.745 0.665,0 0,-0.361 c 0.256,0.31 0.526,0.401 0.893,0.401 0.339,0 0.642,-0.113 0.826,-0.3 0.341,-0.339 0.378,-0.913 0.378,-1.425 0,-0.514 -0.037,-1.095 -0.378,-1.433" id="path362" style="fill:#231f20;fill-opacity:1;fill-rule:nonzero;stroke:none"/></g><g transform="matrix(2.1430728,0,0,2.1430728,769.1896,511.50527)" id="g364"><path d="m 0,0 c -0.647,0 -0.926,0.432 -0.926,0.928 l 0,3.813 0.678,0 0,-3.769 c 0,-0.258 0.093,-0.394 0.365,-0.394 l 0.3,0 L 0.417,0 0,0 z" id="path366" style="fill:#231f20;fill-opacity:1;fill-rule:nonzero;stroke:none"/></g><path d="m 771.77864,518.73921 1.45944,0 0,-7.23287 -1.45944,0 0,7.23287 z m -0.0386,2.9703 1.54301,0 0,-1.5473 -1.54301,0 0,1.5473 z" id="path368" style="fill:#231f20;fill-opacity:1;fill-rule:nonzero;stroke:none"/><g transform="matrix(2.1430728,0,0,2.1430728,779.7783,516.69772)" id="g370"><path d="M 0,0 C -0.109,0.253 -0.349,0.427 -0.669,0.427 -0.989,0.427 -1.234,0.253 -1.342,0 -1.409,-0.153 -1.421,-0.253 -1.428,-0.46 l 1.52,0 C 0.083,-0.253 0.063,-0.153 0,0 m -1.428,-0.931 c 0,-0.581 0.307,-0.946 0.86,-0.946 0.381,0 0.577,0.107 0.821,0.344 l 0.43,-0.405 c -0.347,-0.347 -0.674,-0.526 -1.264,-0.526 -0.847,0 -1.521,0.444 -1.521,1.732 0,1.09 0.568,1.725 1.433,1.725 0.903,0 1.434,-0.668 1.434,-1.625 l 0,-0.299 -2.193,0 z" id="path372" style="fill:#231f20;fill-opacity:1;fill-rule:nonzero;stroke:none"/></g><g transform="matrix(2.1430728,0,0,2.1430728,786.06094,517.5273)" id="g374"><path d="m 0,0 c -0.612,0 -0.705,-0.519 -0.705,-1.119 0,-0.602 0.093,-1.125 0.705,-1.125 0.612,0 0.698,0.523 0.698,1.125 C 0.698,-0.519 0.612,0 0,0 m 0.714,-2.81 0,0.359 c -0.252,-0.311 -0.524,-0.4 -0.892,-0.4 -0.341,0 -0.638,0.112 -0.825,0.299 -0.34,0.338 -0.381,0.919 -0.381,1.433 0,0.512 0.041,1.086 0.381,1.425 0.187,0.187 0.478,0.3 0.82,0.3 0.357,0 0.64,-0.087 0.881,-0.381 l 0,1.706 0.683,0 0,-4.741 -0.667,0 z" id="path376" style="fill:#231f20;fill-opacity:1;fill-rule:nonzero;stroke:none"/></g><g transform="matrix(2.1430728,0,0,2.1430728,797.82534,511.41697)" id="g378"><path d="m 0,0 c -0.716,0 -1.229,0.166 -1.679,0.628 l 0.478,0.47 c 0.346,-0.343 0.728,-0.453 1.216,-0.453 0.616,0 0.974,0.268 0.974,0.729 0,0.205 -0.058,0.379 -0.184,0.491 -0.119,0.11 -0.241,0.159 -0.522,0.199 l -0.559,0.08 c -0.382,0.054 -0.692,0.188 -0.899,0.379 -0.23,0.223 -0.343,0.522 -0.343,0.906 0,0.826 0.598,1.392 1.583,1.392 0.628,0 1.065,-0.159 1.472,-0.537 L 1.075,3.83 c -0.291,0.279 -0.63,0.367 -1.032,0.367 -0.555,0 -0.865,-0.323 -0.865,-0.74 0,-0.173 0.054,-0.328 0.181,-0.44 0.12,-0.108 0.312,-0.188 0.533,-0.223 L 0.429,2.717 C 0.871,2.651 1.117,2.544 1.317,2.365 1.574,2.136 1.703,1.799 1.703,1.391 1.703,0.52 0.989,0 0,0" id="path380" style="fill:#231f20;fill-opacity:1;fill-rule:nonzero;stroke:none"/></g><g transform="matrix(2.1430728,0,0,2.1430728,806.32798,511.41697)" id="g382"><path d="m 0,0 c -0.76,0 -1.508,0.466 -1.508,1.732 0,1.263 0.748,1.725 1.508,1.725 0.466,0 0.792,-0.134 1.109,-0.474 L 0.644,2.53 C 0.433,2.763 0.265,2.851 0,2.851 c -0.261,0 -0.479,-0.105 -0.627,-0.3 -0.149,-0.186 -0.2,-0.426 -0.2,-0.819 0,-0.395 0.051,-0.64 0.2,-0.826 C -0.479,0.71 -0.261,0.607 0,0.607 c 0.265,0 0.433,0.087 0.644,0.317 L 1.109,0.479 C 0.792,0.14 0.466,0 0,0" id="path384" style="fill:#231f20;fill-opacity:1;fill-rule:nonzero;stroke:none"/></g><path d="m 810.48682,518.73921 1.46158,0 0,-7.23287 -1.46158,0 0,7.23287 z m -0.045,2.9703 1.5473,0 0,-1.5473 -1.5473,0 0,1.5473 z" id="path386" style="fill:#231f20;fill-opacity:1;fill-rule:nonzero;stroke:none"/><g transform="matrix(2.1430728,0,0,2.1430728,818.4792,516.69772)" id="g388"><path d="m 0,0 c -0.107,0.253 -0.348,0.427 -0.665,0.427 -0.32,0 -0.566,-0.174 -0.673,-0.427 -0.07,-0.153 -0.08,-0.253 -0.089,-0.46 l 1.521,0 C 0.086,-0.253 0.063,-0.153 0,0 m -1.427,-0.931 c 0,-0.581 0.31,-0.946 0.861,-0.946 0.379,0 0.581,0.107 0.819,0.344 L 0.686,-1.938 C 0.34,-2.285 0.015,-2.464 -0.578,-2.464 c -0.849,0 -1.521,0.444 -1.521,1.732 0,1.09 0.567,1.725 1.434,1.725 0.905,0 1.433,-0.668 1.433,-1.625 l 0,-0.299 -2.195,0 z" id="path390" style="fill:#231f20;fill-opacity:1;fill-rule:nonzero;stroke:none"/></g><g transform="matrix(2.1430728,0,0,2.1430728,826.55751,511.50527)" id="g392"><path d="M 0,0 0,2.057 C 0,2.585 -0.303,2.81 -0.682,2.81 -1.06,2.81 -1.381,2.577 -1.381,2.057 l 0,-2.057 -0.675,0 0,3.375 0.663,0 0,-0.339 c 0.232,0.254 0.557,0.38 0.901,0.38 0.345,0 0.63,-0.113 0.83,-0.309 C 0.601,2.855 0.681,2.538 0.681,2.157 L 0.681,0 0,0 z" id="path394" style="fill:#231f20;fill-opacity:1;fill-rule:nonzero;stroke:none"/></g><g transform="matrix(2.1430728,0,0,2.1430728,833.19954,511.41697)" id="g396"><path d="m 0,0 c -0.76,0 -1.504,0.466 -1.504,1.732 0,1.263 0.744,1.725 1.504,1.725 0.466,0 0.795,-0.134 1.115,-0.474 L 0.648,2.53 C 0.435,2.763 0.267,2.851 0,2.851 c -0.258,0 -0.478,-0.105 -0.627,-0.3 -0.145,-0.186 -0.197,-0.426 -0.197,-0.819 0,-0.395 0.052,-0.64 0.197,-0.826 C -0.478,0.71 -0.258,0.607 0,0.607 c 0.267,0 0.435,0.087 0.648,0.317 L 1.115,0.479 C 0.795,0.14 0.466,0 0,0" id="path398" style="fill:#231f20;fill-opacity:1;fill-rule:nonzero;stroke:none"/></g><g transform="matrix(2.1430728,0,0,2.1430728,841.24742,516.69772)" id="g400"><path d="M 0,0 C -0.107,0.253 -0.348,0.427 -0.669,0.427 -0.984,0.427 -1.235,0.253 -1.339,0 -1.408,-0.153 -1.42,-0.253 -1.424,-0.46 l 1.516,0 C 0.087,-0.253 0.066,-0.153 0,0 m -1.424,-0.931 c 0,-0.581 0.303,-0.946 0.855,-0.946 0.379,0 0.58,0.107 0.824,0.344 l 0.43,-0.405 C 0.34,-2.285 0.011,-2.464 -0.579,-2.464 c -0.845,0 -1.52,0.444 -1.52,1.732 0,1.09 0.565,1.725 1.43,1.725 0.91,0 1.433,-0.668 1.433,-1.625 l 0,-0.299 -2.188,0 z" id="path402" style="fill:#231f20;fill-opacity:1;fill-rule:nonzero;stroke:none"/></g><g transform="matrix(2.1430728,0,0,2.1430728,847.25038,511.41697)" id="g404"><path d="m 0,0 c -0.552,0 -1.015,0.09 -1.416,0.486 l 0.444,0.445 C -0.695,0.652 -0.332,0.582 0,0.582 c 0.412,0 0.741,0.144 0.741,0.462 0,0.227 -0.126,0.374 -0.454,0.401 l -0.539,0.046 c -0.636,0.052 -0.999,0.341 -0.999,0.932 0,0.661 0.565,1.034 1.273,1.034 0.502,0 0.937,-0.108 1.249,-0.381 L 0.847,2.643 c -0.214,0.18 -0.514,0.248 -0.834,0.248 -0.403,0 -0.607,-0.182 -0.607,-0.432 0,-0.203 0.101,-0.356 0.462,-0.386 L 0.402,2.024 C 1.036,1.969 1.406,1.671 1.406,1.072 1.406,0.366 0.805,0 0,0" id="path406" style="fill:#231f20;fill-opacity:1;fill-rule:nonzero;stroke:none"/></g><g transform="matrix(2.1430728,0,0,2.1430728,734.50268,573.0571)" id="g408"><path d="m 0,0 0,3.191 -2.582,0 0,-3.191 -1.49,0 0,7.626 1.49,0 0,-3.116 2.582,0 0,3.116 1.487,0 L 1.487,0 0,0 z" id="path410" style="fill:#7b7979;fill-opacity:1;fill-rule:nonzero;stroke:none"/></g><g transform="matrix(2.1430728,0,0,2.1430728,749.04514,585.82189)" id="g412"><path d="M 0,0 C -0.216,0.245 -0.545,0.408 -0.956,0.408 -1.364,0.408 -1.705,0.245 -1.919,0 -2.208,-0.323 -2.28,-0.676 -2.28,-2.143 c 0,-1.468 0.072,-1.822 0.361,-2.141 0.214,-0.247 0.555,-0.408 0.963,-0.408 0.411,0 0.74,0.161 0.956,0.408 0.287,0.319 0.374,0.673 0.374,2.141 C 0.374,-0.676 0.287,-0.323 0,0 m 1.101,-5.186 c -0.535,-0.536 -1.187,-0.835 -2.057,-0.835 -0.865,0 -1.533,0.299 -2.066,0.835 -0.771,0.77 -0.75,1.725 -0.75,3.043 0,1.319 -0.021,2.271 0.75,3.042 0.533,0.538 1.201,0.837 2.066,0.837 0.87,0 1.522,-0.299 2.057,-0.837 0.774,-0.771 0.764,-1.723 0.764,-3.042 0,-1.318 0.01,-2.273 -0.764,-3.043" id="path414" style="fill:#7b7979;fill-opacity:1;fill-rule:nonzero;stroke:none"/></g><g transform="matrix(2.1430728,0,0,2.1430728,761.77414,572.91909)" id="g416"><path d="m 0,0 c -0.835,0 -1.521,0.299 -2.057,0.835 -0.77,0.77 -0.748,1.724 -0.748,3.043 0,1.319 -0.022,2.271 0.748,3.042 0.536,0.538 1.222,0.837 2.057,0.837 1.428,0 2.544,-0.816 2.809,-2.412 l -1.511,0 C 1.147,5.954 0.761,6.429 0.01,6.429 -0.396,6.429 -0.726,6.276 -0.94,6.033 -1.231,5.71 -1.317,5.345 -1.317,3.878 c 0,-1.468 0.086,-1.83 0.377,-2.155 0.214,-0.244 0.544,-0.396 0.95,-0.396 0.751,0 1.137,0.472 1.288,1.083 l 1.511,0 C 2.544,0.815 1.418,0 0,0" id="path418" style="fill:#7b7979;fill-opacity:1;fill-rule:nonzero;stroke:none"/></g><g transform="matrix(2.1430728,0,0,2.1430728,779.28368,573.0571)" id="g420"><path d="m 0,0 0,3.191 -2.58,0 0,-3.191 -1.491,0 0,7.626 1.491,0 0,-3.116 2.58,0 0,3.116 1.491,0 L 1.491,0 0,0 z" id="path422" style="fill:#7b7979;fill-opacity:1;fill-rule:nonzero;stroke:none"/></g><g transform="matrix(2.1430728,0,0,2.1430728,790.79991,572.91909)" id="g424"><path d="m 0,0 c -1.156,0 -2.037,0.245 -2.787,1.008 l 0.964,0.962 c 0.485,-0.481 1.137,-0.643 1.844,-0.643 0.878,0 1.347,0.334 1.347,0.943 0,0.268 -0.07,0.493 -0.233,0.642 -0.15,0.141 -0.32,0.214 -0.674,0.271 L -0.462,3.311 C -1.117,3.406 -1.599,3.612 -1.94,3.943 -2.305,4.306 -2.486,4.8 -2.486,5.444 c 0,1.358 1.008,2.313 2.659,2.313 1.05,0 1.809,-0.256 2.463,-0.891 L 1.692,5.933 C 1.21,6.396 0.632,6.458 0.126,6.458 c -0.791,0 -1.178,-0.437 -1.178,-0.964 0,-0.192 0.068,-0.394 0.229,-0.545 0.147,-0.14 0.391,-0.258 0.703,-0.302 L 0.782,4.52 C 1.478,4.425 1.92,4.234 2.239,3.932 2.646,3.546 2.83,2.991 2.83,2.313 2.83,0.835 1.596,0 0,0" id="path426" style="fill:#7b7979;fill-opacity:1;fill-rule:nonzero;stroke:none"/></g><g transform="matrix(2.1430728,0,0,2.1430728,805.34666,572.91909)" id="g428"><path d="m 0,0 c -0.836,0 -1.521,0.299 -2.058,0.835 -0.768,0.77 -0.75,1.724 -0.75,3.043 0,1.319 -0.018,2.271 0.75,3.042 0.537,0.538 1.222,0.837 2.058,0.837 1.426,0 2.54,-0.816 2.806,-2.412 l -1.512,0 C 1.147,5.954 0.762,6.429 0.01,6.429 -0.399,6.429 -0.732,6.276 -0.942,6.033 -1.231,5.71 -1.32,5.345 -1.32,3.878 c 0,-1.468 0.089,-1.83 0.378,-2.155 0.21,-0.244 0.543,-0.396 0.952,-0.396 0.752,0 1.137,0.472 1.284,1.083 l 1.512,0 C 2.54,0.815 1.412,0 0,0" id="path430" style="fill:#7b7979;fill-opacity:1;fill-rule:nonzero;stroke:none"/></g><g transform="matrix(2.1430728,0,0,2.1430728,822.84785,573.0571)" id="g432"><path d="m 0,0 0,3.191 -2.58,0 0,-3.191 -1.491,0 0,7.626 1.491,0 0,-3.116 2.58,0 0,3.116 1.491,0 L 1.491,0 0,0 z" id="path434" style="fill:#7b7979;fill-opacity:1;fill-rule:nonzero;stroke:none"/></g><g transform="matrix(2.1430728,0,0,2.1430728,835.62785,572.91909)" id="g436"><path d="m 0,0 c -1.562,0 -2.805,1.06 -2.805,2.677 l 0,5.014 1.488,0 0,-4.961 c 0,-0.877 0.515,-1.403 1.317,-1.403 0.806,0 1.33,0.526 1.33,1.403 l 0,4.961 1.476,0 0,-5.014 C 2.806,1.06 1.564,0 0,0" id="path438" style="fill:#7b7979;fill-opacity:1;fill-rule:nonzero;stroke:none"/></g><g transform="matrix(2.1430728,0,0,2.1430728,845.2136,573.0571)" id="g440"><path d="m 0,0 0,7.626 1.491,0 0,-6.296 3.462,0 L 4.953,0 0,0 z" id="path442" style="fill:#7b7979;fill-opacity:1;fill-rule:nonzero;stroke:none"/></g><g transform="matrix(2.1430728,0,0,2.1430728,858.42886,573.0571)" id="g444"><path d="m 0,0 0,7.626 5.024,0 0,-1.327 -3.533,0 0,-1.789 3.009,0 0,-1.327 -3.009,0 0,-1.853 3.533,0 L 5.024,0 0,0 z" id="path446" style="fill:#7b7979;fill-opacity:1;fill-rule:nonzero;stroke:none"/></g><g transform="matrix(2.1430728,0,0,2.1430728,679.92933,550.78522)" id="g448"><path d="m 0,0 0,19.876 -6.86,8.542 c -1.018,1.269 -0.816,3.122 0.455,4.141 1.268,1.02 3.121,0.815 4.141,-0.451 L 5.893,21.949 5.893,0 C 5.893,-1.625 4.572,-2.946 2.946,-2.946 1.318,-2.946 0,-1.625 0,0" id="path450" style="fill:#2f275f;fill-opacity:1;fill-rule:nonzero;stroke:none"/></g><g transform="matrix(2.1430728,0,0,2.1430728,723.01945,623.5554)" id="g452"><path d="m 0,0 -12.782,-16.922 -0.045,-26.167 c -0.004,-1.631 1.313,-2.949 2.941,-2.953 l 0.004,0 c 1.624,0 2.943,1.317 2.947,2.941 L -6.893,-18.903 0,-9.777 0,0 z" id="path454" style="fill:#4472c2;fill-opacity:1;fill-rule:nonzero;stroke:none"/></g></g><script xmlns=""/></svg>